<svg xmlns="http://www.w3.org/2000/svg" xmlns:xlink="http://www.w3.org/1999/xlink" width="500" zoomAndPan="magnify" viewBox="0 0 375 374.999991" height="500" preserveAspectRatio="xMidYMid meet" version="1.0"><defs><g/></defs><g fill="#d4c1a4" fill-opacity="1"><g transform="translate(157.421043, 238.528243)"><g><path d="M 135.171875 -109.71875 L 129.234375 -105.78125 C 125.617188 -111.15625 120.90625 -115.398438 115.09375 -118.515625 C 109.289062 -121.640625 103 -123.203125 96.21875 -123.203125 C 85.21875 -123.203125 75.820312 -119.304688 68.03125 -111.515625 C 60.25 -103.734375 56.359375 -94.335938 56.359375 -83.328125 C 56.359375 -72.328125 60.25 -62.9375 68.03125 -55.15625 C 75.820312 -47.375 85.21875 -43.484375 96.21875 -43.484375 C 103 -43.484375 109.289062 -45.054688 115.09375 -48.203125 C 120.90625 -51.359375 125.617188 -55.625 129.234375 -61 L 135.078125 -56.765625 C 130.785156 -50.460938 125.21875 -45.460938 118.375 -41.765625 C 111.53125 -38.078125 104.144531 -36.234375 96.21875 -36.234375 C 89.84375 -36.234375 83.753906 -37.472656 77.953125 -39.953125 C 72.148438 -42.441406 67.132812 -45.796875 62.90625 -50.015625 C 58.675781 -54.242188 55.320312 -59.257812 52.84375 -65.0625 C 50.363281 -70.875 49.125 -76.96875 49.125 -83.34375 C 49.125 -89.71875 50.363281 -95.804688 52.84375 -101.609375 C 55.320312 -107.410156 58.675781 -112.425781 62.90625 -116.65625 C 67.132812 -120.882812 72.148438 -124.238281 77.953125 -126.71875 C 83.753906 -129.207031 89.84375 -130.453125 96.21875 -130.453125 C 104.207031 -130.453125 111.625 -128.585938 118.46875 -124.859375 C 125.3125 -121.140625 130.878906 -116.09375 135.171875 -109.71875 Z M 147.15625 -117.96875 L 141.125 -114.046875 C 136.15625 -121.285156 129.726562 -127.035156 121.84375 -131.296875 C 113.957031 -135.566406 105.414062 -137.703125 96.21875 -137.703125 C 86.351562 -137.703125 77.257812 -135.265625 68.9375 -130.390625 C 60.625 -125.523438 54.035156 -118.929688 49.171875 -110.609375 C 44.304688 -102.296875 41.875 -93.207031 41.875 -83.34375 C 41.875 -73.476562 44.304688 -64.382812 49.171875 -56.0625 C 54.035156 -47.738281 60.625 -41.144531 68.9375 -36.28125 C 77.257812 -31.414062 86.351562 -28.984375 96.21875 -28.984375 C 105.414062 -28.984375 113.972656 -31.128906 121.890625 -35.421875 C 129.804688 -39.722656 136.25 -45.53125 141.21875 -52.84375 L 147.15625 -48.71875 C 141.519531 -40.394531 134.222656 -33.816406 125.265625 -28.984375 C 116.304688 -24.148438 106.625 -21.734375 96.21875 -21.734375 C 85.082031 -21.734375 74.78125 -24.484375 65.3125 -29.984375 C 55.851562 -35.492188 48.375 -42.976562 42.875 -52.4375 C 37.375 -61.90625 34.625 -72.207031 34.625 -83.34375 C 34.625 -94.476562 37.375 -104.773438 42.875 -114.234375 C 48.375 -123.703125 55.851562 -131.1875 65.3125 -136.6875 C 74.78125 -142.1875 85.082031 -144.9375 96.21875 -144.9375 C 106.625 -144.9375 116.304688 -142.519531 125.265625 -137.6875 C 134.222656 -132.863281 141.519531 -126.289062 147.15625 -117.96875 Z M 159.234375 -126.015625 L 153.203125 -122.09375 C 146.890625 -131.351562 138.71875 -138.679688 128.6875 -144.078125 C 118.65625 -149.484375 107.832031 -152.1875 96.21875 -152.1875 C 86.894531 -152.1875 77.972656 -150.375 69.453125 -146.75 C 60.929688 -143.125 53.597656 -138.242188 47.453125 -132.109375 C 41.316406 -125.972656 36.4375 -118.640625 32.8125 -110.109375 C 29.1875 -101.585938 27.375 -92.660156 27.375 -83.328125 C 27.375 -74.003906 29.1875 -65.082031 32.8125 -56.5625 C 36.4375 -48.039062 41.316406 -40.707031 47.453125 -34.5625 C 53.597656 -28.425781 60.929688 -23.546875 69.453125 -19.921875 C 77.972656 -16.304688 86.894531 -14.5 96.21875 -14.5 C 107.894531 -14.5 118.734375 -17.210938 128.734375 -22.640625 C 138.734375 -28.078125 146.890625 -35.425781 153.203125 -44.6875 L 159.03125 -40.359375 C 152.050781 -30.160156 143.039062 -22.09375 132 -16.15625 C 120.96875 -10.21875 109.039062 -7.25 96.21875 -7.25 C 82.46875 -7.25 69.753906 -10.65625 58.078125 -17.46875 C 46.398438 -24.28125 37.15625 -33.519531 30.34375 -45.1875 C 23.53125 -56.863281 20.125 -69.578125 20.125 -83.328125 C 20.125 -97.085938 23.53125 -109.804688 30.34375 -121.484375 C 37.15625 -133.160156 46.398438 -142.40625 58.078125 -149.21875 C 69.753906 -156.03125 82.46875 -159.4375 96.21875 -159.4375 C 109.101562 -159.4375 121.082031 -156.429688 132.15625 -150.421875 C 143.226562 -144.421875 152.253906 -136.285156 159.234375 -126.015625 Z M 171.109375 -134.265625 L 165.078125 -130.34375 C 157.421875 -141.550781 147.535156 -150.410156 135.421875 -156.921875 C 123.316406 -163.429688 110.25 -166.6875 96.21875 -166.6875 C 84.945312 -166.6875 74.160156 -164.488281 63.859375 -160.09375 C 53.566406 -155.695312 44.691406 -149.773438 37.234375 -142.328125 C 29.785156 -134.878906 23.863281 -126.003906 19.46875 -115.703125 C 15.082031 -105.398438 12.890625 -94.613281 12.890625 -83.34375 C 12.890625 -72.070312 15.082031 -61.285156 19.46875 -50.984375 C 23.863281 -40.679688 29.785156 -31.804688 37.234375 -24.359375 C 44.691406 -16.910156 53.566406 -10.988281 63.859375 -6.59375 C 74.160156 -2.195312 84.945312 0 96.21875 0 C 110.25 0 123.335938 -3.285156 135.484375 -9.859375 C 147.628906 -16.441406 157.523438 -25.332031 165.171875 -36.53125 L 171.015625 -32.109375 C 162.691406 -20.023438 151.953125 -10.441406 138.796875 -3.359375 C 125.648438 3.710938 111.457031 7.25 96.21875 7.25 C 83.945312 7.25 72.222656 4.847656 61.046875 0.046875 C 49.867188 -4.742188 40.238281 -11.179688 32.15625 -19.265625 C 24.070312 -27.359375 17.628906 -36.988281 12.828125 -48.15625 C 8.035156 -59.332031 5.640625 -71.0625 5.640625 -83.34375 C 5.640625 -95.625 8.035156 -107.347656 12.828125 -118.515625 C 17.628906 -129.691406 24.070312 -139.320312 32.15625 -147.40625 C 40.238281 -155.488281 49.867188 -161.929688 61.046875 -166.734375 C 72.222656 -171.535156 83.945312 -173.9375 96.21875 -173.9375 C 111.519531 -173.9375 125.742188 -170.378906 138.890625 -163.265625 C 152.046875 -156.148438 162.785156 -146.484375 171.109375 -134.265625 Z M 171.109375 -134.265625 "/></g></g></g><g fill="#ffffff" fill-opacity="1"><g transform="translate(49.145039, 238.528243)"><g><path d="M 60.09375 0 L 52.84375 0 L 52.84375 -166.6875 L 133.0625 -166.6875 L 133.0625 -159.4375 L 60.09375 -159.4375 L 60.09375 -152.1875 L 133.0625 -152.1875 L 133.0625 -144.9375 L 60.09375 -144.9375 L 60.09375 -137.703125 L 133.0625 -137.703125 L 133.0625 -130.453125 L 60.09375 -130.453125 L 60.09375 -94.21875 L 129.640625 -94.21875 L 129.640625 -86.96875 L 60.09375 -86.96875 L 60.09375 -79.71875 L 129.640625 -79.71875 L 129.640625 -72.46875 L 60.09375 -72.46875 L 60.09375 -65.21875 L 129.640625 -65.21875 L 129.640625 -57.984375 L 60.09375 -57.984375 Z M 45.59375 0 L 38.34375 0 L 38.34375 -166.6875 L 45.59375 -166.6875 Z M 31.109375 0 L 23.859375 0 L 23.859375 -166.6875 L 31.109375 -166.6875 Z M 16.609375 0 L 9.359375 0 L 9.359375 -166.6875 L 16.609375 -166.6875 Z M 16.609375 0 "/></g></g></g><g fill="#ffffff" fill-opacity="1"><g transform="translate(129.281049, 293.502647)"><g><path d="M 16.527344 -14.804688 L 15.582031 -14.804688 L 9.15625 -4.976562 L 2.730469 -14.804688 L 1.785156 -14.804688 L 1.785156 0 L 3.589844 0 L 3.589844 -10.710938 L 9.15625 -1.972656 L 14.71875 -10.710938 L 14.71875 0 L 16.527344 0 Z M 16.527344 -14.804688 "/></g></g></g><g fill="#ffffff" fill-opacity="1"><g transform="translate(147.575, 293.502647)"><g><path d="M 14.152344 -14.804688 L 12.410156 -14.804688 L 12.410156 -6.320312 C 12.410156 -3.402344 10.835938 -1.511719 7.917969 -1.511719 C 5.019531 -1.511719 3.484375 -3.402344 3.484375 -6.320312 L 3.484375 -14.804688 L 1.722656 -14.804688 L 1.722656 -5.941406 C 1.722656 -2.5625 3.863281 0.125 7.917969 0.125 C 11.988281 0.125 14.152344 -2.582031 14.152344 -5.941406 Z M 14.152344 -14.804688 "/></g></g></g><g fill="#ffffff" fill-opacity="1"><g transform="translate(163.414378, 293.502647)"><g><path d="M 12.492188 -1.53125 L 3.527344 -1.53125 L 3.527344 -6.425781 L 10.75 -6.425781 L 10.75 -7.9375 L 3.527344 -7.9375 L 3.527344 -13.269531 L 12.054688 -13.269531 L 12.054688 -14.804688 L 1.785156 -14.804688 L 1.785156 0 L 12.492188 0 Z M 12.492188 -1.53125 "/></g></g></g><g fill="#ffffff" fill-opacity="1"><g transform="translate(176.925059, 293.502647)"><g><path d="M 10.898438 -11.800781 C 10.898438 -13.503906 9.449219 -14.804688 7.621094 -14.804688 L 1.785156 -14.804688 L 1.785156 0 L 9.324219 0 C 12.242188 0 13.796875 -2.226562 13.796875 -4.683594 C 13.796875 -6.992188 12.304688 -9.132812 9.804688 -9.40625 C 10.5625 -9.972656 10.898438 -10.941406 10.898438 -11.800781 Z M 3.527344 -9.574219 L 3.527344 -13.269531 L 7.054688 -13.269531 C 8.355469 -13.269531 9.28125 -12.472656 9.28125 -11.402344 C 9.28125 -10.625 8.820312 -9.574219 7.558594 -9.574219 Z M 3.546875 -1.53125 L 3.546875 -8.210938 L 8.503906 -8.210938 C 10.792969 -8.210938 11.925781 -6.53125 11.925781 -4.851562 C 11.925781 -3.042969 10.8125 -1.53125 8.484375 -1.53125 Z M 3.546875 -1.53125 "/></g></g></g><g fill="#ffffff" fill-opacity="1"><g transform="translate(191.631563, 293.502647)"><g><path d="M 11.800781 -1.492188 L 3.589844 -1.492188 L 3.589844 -14.804688 L 1.785156 -14.804688 L 1.785156 0 L 11.800781 0 Z M 11.800781 -1.492188 "/></g></g></g><g fill="#ffffff" fill-opacity="1"><g transform="translate(204.198176, 293.502647)"><g><path d="M 12.492188 -1.53125 L 3.527344 -1.53125 L 3.527344 -6.425781 L 10.75 -6.425781 L 10.75 -7.9375 L 3.527344 -7.9375 L 3.527344 -13.269531 L 12.054688 -13.269531 L 12.054688 -14.804688 L 1.785156 -14.804688 L 1.785156 0 L 12.492188 0 Z M 12.492188 -1.53125 "/></g></g></g><g fill="#ffffff" fill-opacity="1"><g transform="translate(217.708858, 293.502647)"><g><path d="M 7.140625 -8.210938 C 4.683594 -8.796875 3.003906 -9.386719 3.003906 -10.941406 C 3.003906 -12.367188 4.261719 -13.375 6.382812 -13.375 C 7.832031 -13.375 9.785156 -12.957031 11.046875 -12.347656 L 11.800781 -13.773438 C 10.4375 -14.425781 8.355469 -14.929688 6.40625 -14.929688 C 3.171875 -14.929688 1.195312 -13.230469 1.195312 -10.835938 C 1.195312 -8.105469 3.675781 -7.328125 6.675781 -6.613281 C 8.988281 -6.070312 10.5625 -5.460938 10.5625 -3.90625 C 10.5625 -2.308594 9.15625 -1.386719 6.972656 -1.386719 C 4.933594 -1.386719 3.820312 -1.554688 1.722656 -2.582031 L 1.050781 -1.195312 C 3.402344 -0.0195312 4.492188 0.167969 6.910156 0.167969 C 10.207031 0.167969 12.390625 -1.386719 12.390625 -4.03125 C 12.390625 -6.613281 10.121094 -7.515625 7.140625 -8.210938 Z M 7.140625 -8.210938 "/></g></g></g><path stroke-linecap="butt" transform="matrix(0.749332, 0, 0, 0.75, 22.202927, 257.352463)" fill="none" stroke-linejoin="miter" d="M 0.000263966 0.998799 L 421.385735 0.998799 " stroke="#d4c1a4" stroke-width="2" stroke-opacity="1" stroke-miterlimit="4"/><path stroke-linecap="butt" transform="matrix(0.749332, 0, 0, 0.75, 22.202927, 312.146317)" fill="none" stroke-linejoin="miter" d="M 0.000263966 0.997619 L 421.385735 0.997619 " stroke="#d4c1a4" stroke-width="2" stroke-opacity="1" stroke-miterlimit="4"/></svg>