<svg xmlns="http://www.w3.org/2000/svg" xmlns:xlink="http://www.w3.org/1999/xlink" width="687" zoomAndPan="magnify" viewBox="0 0 515.25 397.500002" height="530" preserveAspectRatio="xMidYMid meet" version="1.0"><defs><g/></defs><g fill="#d4c1a4" fill-opacity="1"><g transform="translate(232.083218, 275.666298)"><g><path d="M 134.984375 -109.5625 L 129.046875 -105.640625 C 125.429688 -110.992188 120.722656 -115.226562 114.921875 -118.34375 C 109.128906 -121.46875 102.851562 -123.03125 96.09375 -123.03125 C 85.101562 -123.03125 75.71875 -119.140625 67.9375 -111.359375 C 60.164062 -103.585938 56.28125 -94.207031 56.28125 -83.21875 C 56.28125 -72.226562 60.164062 -62.847656 67.9375 -55.078125 C 75.71875 -47.304688 85.101562 -43.421875 96.09375 -43.421875 C 102.851562 -43.421875 109.128906 -44.992188 114.921875 -48.140625 C 120.722656 -51.296875 125.429688 -55.550781 129.046875 -60.90625 L 134.890625 -56.6875 C 130.597656 -50.382812 125.035156 -45.390625 118.203125 -41.703125 C 111.367188 -38.023438 104 -36.1875 96.09375 -36.1875 C 89.71875 -36.1875 83.632812 -37.425781 77.84375 -39.90625 C 72.050781 -42.382812 67.039062 -45.734375 62.8125 -49.953125 C 58.59375 -54.171875 55.242188 -59.175781 52.765625 -64.96875 C 50.285156 -70.769531 49.046875 -76.851562 49.046875 -83.21875 C 49.046875 -89.582031 50.285156 -95.660156 52.765625 -101.453125 C 55.242188 -107.253906 58.59375 -112.265625 62.8125 -116.484375 C 67.039062 -120.710938 72.050781 -124.066406 77.84375 -126.546875 C 83.632812 -129.023438 89.71875 -130.265625 96.09375 -130.265625 C 104.0625 -130.265625 111.460938 -128.40625 118.296875 -124.6875 C 125.128906 -120.96875 130.691406 -115.925781 134.984375 -109.5625 Z M 146.9375 -117.796875 L 140.921875 -113.875 C 135.960938 -121.113281 129.546875 -126.859375 121.671875 -131.109375 C 113.796875 -135.367188 105.269531 -137.5 96.09375 -137.5 C 86.238281 -137.5 77.15625 -135.066406 68.84375 -130.203125 C 60.539062 -125.347656 53.957031 -118.765625 49.09375 -110.453125 C 44.238281 -102.148438 41.8125 -93.070312 41.8125 -83.21875 C 41.8125 -73.375 44.238281 -64.296875 49.09375 -55.984375 C 53.957031 -47.671875 60.539062 -41.085938 68.84375 -36.234375 C 77.15625 -31.378906 86.238281 -28.953125 96.09375 -28.953125 C 105.269531 -28.953125 113.8125 -31.09375 121.71875 -35.375 C 129.625 -39.664062 136.054688 -45.460938 141.015625 -52.765625 L 146.9375 -48.640625 C 141.3125 -40.335938 134.023438 -33.769531 125.078125 -28.9375 C 116.140625 -24.113281 106.476562 -21.703125 96.09375 -21.703125 C 84.96875 -21.703125 74.679688 -24.445312 65.234375 -29.9375 C 55.785156 -35.4375 48.3125 -42.910156 42.8125 -52.359375 C 37.320312 -61.804688 34.578125 -72.09375 34.578125 -83.21875 C 34.578125 -94.34375 37.320312 -104.628906 42.8125 -114.078125 C 48.3125 -123.523438 55.785156 -130.992188 65.234375 -136.484375 C 74.679688 -141.984375 84.96875 -144.734375 96.09375 -144.734375 C 106.476562 -144.734375 116.140625 -142.320312 125.078125 -137.5 C 134.023438 -132.675781 141.3125 -126.109375 146.9375 -117.796875 Z M 159 -125.84375 L 152.96875 -121.921875 C 146.675781 -131.160156 138.519531 -138.476562 128.5 -143.875 C 118.476562 -149.269531 107.675781 -151.96875 96.09375 -151.96875 C 86.769531 -151.96875 77.851562 -150.15625 69.34375 -146.53125 C 60.84375 -142.914062 53.523438 -138.039062 47.390625 -131.90625 C 41.253906 -125.78125 36.378906 -118.460938 32.765625 -109.953125 C 29.148438 -101.441406 27.34375 -92.53125 27.34375 -83.21875 C 27.34375 -73.90625 29.148438 -64.992188 32.765625 -56.484375 C 36.378906 -47.972656 41.253906 -40.648438 47.390625 -34.515625 C 53.523438 -28.390625 60.84375 -23.515625 69.34375 -19.890625 C 77.851562 -16.273438 86.769531 -14.46875 96.09375 -14.46875 C 107.75 -14.46875 118.566406 -17.179688 128.546875 -22.609375 C 138.535156 -28.035156 146.675781 -35.375 152.96875 -44.625 L 158.8125 -40.296875 C 151.84375 -30.117188 142.84375 -22.0625 131.8125 -16.125 C 120.789062 -10.195312 108.882812 -7.234375 96.09375 -7.234375 C 82.351562 -7.234375 69.648438 -10.632812 57.984375 -17.4375 C 46.328125 -24.238281 37.097656 -33.46875 30.296875 -45.125 C 23.503906 -56.789062 20.109375 -69.488281 20.109375 -83.21875 C 20.109375 -96.957031 23.503906 -109.65625 30.296875 -121.3125 C 37.097656 -132.96875 46.328125 -142.195312 57.984375 -149 C 69.648438 -155.800781 82.351562 -159.203125 96.09375 -159.203125 C 108.957031 -159.203125 120.914062 -156.203125 131.96875 -150.203125 C 143.019531 -144.210938 152.03125 -136.09375 159 -125.84375 Z M 170.859375 -134.078125 L 164.828125 -130.15625 C 157.191406 -141.34375 147.328125 -150.1875 135.234375 -156.6875 C 123.140625 -163.1875 110.09375 -166.4375 96.09375 -166.4375 C 84.832031 -166.4375 74.054688 -164.242188 63.765625 -159.859375 C 53.484375 -155.472656 44.625 -149.5625 37.1875 -142.125 C 29.75 -134.6875 23.832031 -125.820312 19.4375 -115.53125 C 15.050781 -105.25 12.859375 -94.476562 12.859375 -83.21875 C 12.859375 -71.96875 15.050781 -61.195312 19.4375 -50.90625 C 23.832031 -40.625 29.75 -31.765625 37.1875 -24.328125 C 44.625 -16.890625 53.484375 -10.972656 63.765625 -6.578125 C 74.054688 -2.191406 84.832031 0 96.09375 0 C 110.09375 0 123.15625 -3.28125 135.28125 -9.84375 C 147.414062 -16.414062 157.300781 -25.296875 164.9375 -36.484375 L 170.765625 -32.0625 C 162.453125 -20 151.726562 -10.429688 138.59375 -3.359375 C 125.46875 3.703125 111.300781 7.234375 96.09375 7.234375 C 83.820312 7.234375 72.109375 4.835938 60.953125 0.046875 C 49.796875 -4.742188 40.179688 -11.175781 32.109375 -19.25 C 24.035156 -27.320312 17.601562 -36.9375 12.8125 -48.09375 C 8.019531 -59.25 5.625 -70.957031 5.625 -83.21875 C 5.625 -95.476562 8.019531 -107.1875 12.8125 -118.34375 C 17.601562 -129.5 24.035156 -139.113281 32.109375 -147.1875 C 40.179688 -155.269531 49.796875 -161.707031 60.953125 -166.5 C 72.109375 -171.289062 83.820312 -173.6875 96.09375 -173.6875 C 111.363281 -173.6875 125.566406 -170.132812 138.703125 -163.03125 C 151.835938 -155.925781 162.554688 -146.273438 170.859375 -134.078125 Z M 170.859375 -134.078125 "/></g></g></g><g fill="#ffffff" fill-opacity="1"><g transform="translate(123.964589, 275.666298)"><g><path d="M 60 0 L 52.765625 0 L 52.765625 -166.4375 L 132.875 -166.4375 L 132.875 -159.203125 L 60 -159.203125 L 60 -151.96875 L 132.875 -151.96875 L 132.875 -144.734375 L 60 -144.734375 L 60 -137.5 L 132.875 -137.5 L 132.875 -130.265625 L 60 -130.265625 L 60 -94.078125 L 129.453125 -94.078125 L 129.453125 -86.84375 L 60 -86.84375 L 60 -79.609375 L 129.453125 -79.609375 L 129.453125 -72.359375 L 60 -72.359375 L 60 -65.125 L 129.453125 -65.125 L 129.453125 -57.890625 L 60 -57.890625 Z M 45.53125 0 L 38.296875 0 L 38.296875 -166.4375 L 45.53125 -166.4375 Z M 31.0625 0 L 23.828125 0 L 23.828125 -166.4375 L 31.0625 -166.4375 Z M 16.578125 0 L 9.34375 0 L 9.34375 -166.4375 L 16.578125 -166.4375 Z M 16.578125 0 "/></g></g></g><path stroke-linecap="butt" transform="matrix(0.748243, 0, 0, 0.74891, 97.061636, 294.463158)" fill="none" stroke-linejoin="miter" d="M 0.00115492 0.99849 L 421.38918 0.99849 " stroke="#d4c1a4" stroke-width="2" stroke-opacity="1" stroke-miterlimit="4"/></svg>